<?xml version="1.0" encoding="UTF-8" standalone="no"?>
<svg width="473px" height="132px" viewBox="0 0 473 132" version="1.1" xmlns="http://www.w3.org/2000/svg" xmlns:xlink="http://www.w3.org/1999/xlink" xmlns:sketch="http://www.bohemiancoding.com/sketch/ns">
    <!-- Generator: Sketch 3.4.4 (17249) - http://www.bohemiancoding.com/sketch -->
    <title>poviolabs_logo</title>
    <desc>Created with Sketch.</desc>
    <defs>
        <path id="path-1" d="M0,0.847 L472.314,0.847 L472.314,132 L0,132 L0,0.847 Z"></path>
    </defs>
    <g id="Page-1" stroke="none" stroke-width="1" fill="none" fill-rule="evenodd" sketch:type="MSPage">
        <g id="poviolabs_logo" sketch:type="MSLayerGroup">
            <path d="M185.272,36.2114 C188.194,36.2114 190.572,33.8334 190.572,30.9154 C190.572,27.9924 188.194,25.6144 185.272,25.6144 C182.35,25.6144 179.972,27.9924 179.972,30.9154 C179.972,33.8334 182.35,36.2114 185.272,36.2114" id="Fill-1" fill="#FFFFFF" sketch:type="MSShapeGroup"></path>
            <path d="M146.4077,106.9473 L153.0747,106.9473 L176.0217,47.2653 L168.0647,47.2653 L149.7397,95.0413 L131.4147,47.2653 L123.4617,47.2653 L146.3367,106.7653 L146.4077,106.9473 Z" id="Fill-3" fill="#FFFFFF" sketch:type="MSShapeGroup"></path>
            <mask id="mask-2" sketch:name="Clip 6" fill="white">
                <use xlink:href="#path-1"></use>
            </mask>
            <g id="Clip-6"></g>
            <path d="M181.56,106.947 L188.947,106.947 L188.947,47.265 L181.56,47.265 L181.56,106.947 Z" id="Fill-5" fill="#FFFFFF" sketch:type="MSShapeGroup" mask="url(#mask-2)"></path>
            <path d="M225.4292,101.0928 C213.0782,101.0928 203.0312,90.4068 203.0312,77.2748 C203.0312,63.8988 213.0782,53.0158 225.4292,53.0158 C237.7812,53.0158 247.8272,63.8988 247.8272,77.2748 C247.8272,90.4068 237.7812,101.0928 225.4292,101.0928 M225.4292,45.8448 C209.0052,45.8448 195.6442,59.9448 195.6442,77.2748 C195.6442,94.3588 209.0052,108.2598 225.4292,108.2598 C241.9132,108.2598 255.3242,94.3588 255.3242,77.2748 C255.3242,59.9448 241.9132,45.8448 225.4292,45.8448" id="Fill-7" fill="#FFFFFF" sketch:type="MSShapeGroup" mask="url(#mask-2)"></path>
            <path d="M94.8389,101.0928 C82.4879,101.0928 72.4399,90.4068 72.4399,77.2748 C72.4399,63.8988 82.4879,53.0158 94.8389,53.0158 C107.1899,53.0158 117.2369,63.8988 117.2369,77.2748 C117.2369,90.4068 107.1899,101.0928 94.8389,101.0928 M94.8389,45.8448 C78.4139,45.8448 65.0529,59.9448 65.0529,77.2748 C65.0529,94.3588 78.4139,108.2598 94.8389,108.2598 C111.3229,108.2598 124.7329,94.3588 124.7329,77.2748 C124.7329,59.9448 111.3229,45.8448 94.8389,45.8448" id="Fill-8" fill="#FFFFFF" sketch:type="MSShapeGroup" mask="url(#mask-2)"></path>
            <path d="M29.7856,100.877 C17.4346,100.877 7.3866,90.14 7.3866,76.943 C7.3866,63.929 17.4346,53.344 29.7856,53.344 C42.1366,53.344 52.1836,63.929 52.1836,76.943 C52.1836,90.14 42.1366,100.877 29.7856,100.877 M29.7856,45.845 C13.3616,45.845 -0.0004,59.795 -0.0004,76.943 L-0.0004,132 L7.3866,132 L7.3866,97.284 C12.8316,104.172 21.1396,108.26 29.7856,108.26 C46.2096,108.26 59.5706,94.214 59.5706,76.943 C59.5706,59.795 46.2096,45.845 29.7856,45.845" id="Fill-9" fill="#FFFFFF" sketch:type="MSShapeGroup" mask="url(#mask-2)"></path>
            <path d="M271.519,0.847 L277.31,0.847 L277.31,107.979 L271.519,107.979 L271.519,0.847 Z" id="Fill-10" fill="#FFFFFF" sketch:type="MSShapeGroup" mask="url(#mask-2)"></path>
            <path d="M338.6909,60.4932 C333.7689,55.5712 327.8819,53.1102 321.0289,53.1102 C314.0799,53.1102 308.1929,55.5232 303.3669,60.3482 C298.4449,65.2702 295.9839,71.2062 295.9839,78.1552 C295.9839,85.0102 298.4449,90.8952 303.3669,95.8172 C308.2909,100.7402 314.1749,103.2012 321.0289,103.2012 C327.9779,103.2012 333.8649,100.7902 338.6909,95.9622 C343.6149,91.0402 346.0759,85.1042 346.0759,78.1552 C346.0759,71.3042 343.6149,65.4152 338.6909,60.4932 L338.6909,60.4932 Z M344.9179,107.9782 L344.9179,97.6992 C338.6419,105.2272 330.6789,108.9922 321.0289,108.9922 C312.3429,108.9922 305.0539,106.0492 299.1699,100.1612 C293.1829,94.1782 290.1929,86.8422 290.1929,78.1552 C290.1929,69.4692 293.1359,62.1832 299.0249,56.2952 C305.0069,50.3112 312.3429,47.3192 321.0289,47.3192 C330.5859,47.3192 338.5459,51.0832 344.9179,58.6112 L344.9179,48.1872 L350.8529,48.1872 L350.8529,107.9782 L344.9179,107.9782 Z" id="Fill-11" fill="#FFFFFF" sketch:type="MSShapeGroup" mask="url(#mask-2)"></path>
            <path d="M411.9468,60.4932 C407.0228,55.5712 401.1358,53.1102 394.2828,53.1102 C387.3358,53.1102 381.4468,55.5232 376.6208,60.3482 C371.6988,65.2702 369.2378,71.2062 369.2378,78.1552 C369.2378,85.0102 371.6988,90.8952 376.6208,95.8172 C381.5448,100.7402 387.4288,103.2012 394.2828,103.2012 C401.2318,103.2012 407.1188,100.7902 411.9468,95.9622 C416.8688,91.0402 419.3298,85.1042 419.3298,78.1552 C419.3298,71.3042 416.8688,65.4152 411.9468,60.4932 M416.2888,100.0152 C410.3038,106.0022 402.9698,108.9922 394.2828,108.9922 C384.3418,108.9922 376.1868,104.9882 369.8178,96.9752 L369.8178,107.9782 L363.8828,107.9782 L363.8828,0.8472 L369.8178,0.8472 L369.8178,59.3352 C376.0898,51.3252 384.2438,47.3192 394.2828,47.3192 C402.9698,47.3192 410.2558,50.2642 416.1438,56.1502 C422.1288,62.1352 425.1208,69.4692 425.1208,78.1552 C425.1208,86.8422 422.1758,94.1302 416.2888,100.0152" id="Fill-12" fill="#FFFFFF" sketch:type="MSShapeGroup" mask="url(#mask-2)"></path>
            <path d="M466.6675,104.2148 C462.8065,107.4968 458.1755,109.1368 452.7715,109.1368 C443.5055,109.1368 436.5565,104.9388 431.9235,96.5408 L436.9895,93.5008 C438.6305,96.4938 440.6085,98.8108 442.9255,100.4498 C445.3375,102.2848 448.6185,103.2008 452.7715,103.2008 C461.8415,103.2008 466.3785,99.3418 466.3785,91.6188 C466.3785,88.2418 464.7865,85.2988 461.6015,82.7878 C460.6365,82.2088 459.2595,81.5578 457.4765,80.8338 C455.6885,80.1098 453.4935,79.2658 450.8885,78.2998 C446.0605,76.5628 442.5855,74.8248 440.4645,73.0878 C437.3745,70.5798 435.8315,66.9598 435.8315,62.2308 C435.8315,58.1768 437.3745,54.7018 440.4645,51.8068 C443.4545,48.8168 447.3645,47.3188 452.1905,47.3188 C458.8515,47.3188 464.4975,49.6348 469.1305,54.2678 L464.7865,58.0318 C461.5035,54.7518 457.3065,53.1098 452.1905,53.1098 C445.2415,53.1098 441.7675,56.1498 441.7675,62.2308 C441.7675,64.9338 442.8275,67.1518 444.9525,68.8898 C446.6885,70.2418 449.4405,71.5458 453.2045,72.7988 C456.4835,73.9568 459.1875,75.0428 461.3125,76.0568 C463.4335,77.0688 465.0265,77.9628 466.0895,78.7348 C470.2375,81.9198 472.3135,86.2148 472.3135,91.6188 C472.3135,96.8308 470.4335,101.0288 466.6675,104.2148" id="Fill-13" fill="#FFFFFF" sketch:type="MSShapeGroup" mask="url(#mask-2)"></path>
        </g>
    </g>
</svg>